<?xml version="1.0" standalone="no"?>
<!DOCTYPE svg PUBLIC "-//W3C//DTD SVG 20010904//EN"
 "http://www.w3.org/TR/2001/REC-SVG-20010904/DTD/svg10.dtd">
<svg version="1.0" xmlns="http://www.w3.org/2000/svg"
 width="3072.000000pt" height="3072.000000pt" viewBox="0 0 3072.000000 3072.000000"
 preserveAspectRatio="xMidYMid meet">
<metadata>
Created by potrace 1.11, written by Peter Selinger 2001-2013
</metadata>
<g transform="translate(0.000000,3072.000000) scale(0.100000,-0.100000)"
fill="#000000" stroke="none">
<path d="M0 15360 l0 -15360 15360 0 15360 0 0 15360 0 15360 -15360 0 -15360
0 0 -15360z m26158 78 l2 -4208 -1095 0 -1095 0 0 4203 c0 2312 3 4207 7 4210
3 4 495 6 1092 5 l1086 -3 3 -4207z m1800 4125 l3 -83 -91 0 -90 0 0 -225 0
-226 -102 3 -103 3 -3 223 -2 222 -85 0 -85 0 0 85 0 85 278 -2 277 -3 3 -82z
m220 75 c6 -7 51 -80 100 -161 l90 -148 95 158 94 158 87 3 86 3 0 -311 0
-310 -95 0 -95 0 0 137 0 138 -62 -108 -63 -107 -50 2 -50 3 -55 90 -55 90 -5
-120 -5 -120 -95 0 -95 0 -3 295 c-1 162 0 300 3 307 6 18 159 18 173 1z
m-16338 -1173 c0 -646 3 -1175 6 -1175 4 0 39 18 78 39 106 59 313 147 460
196 326 108 584 147 976 146 609 -1 1084 -106 1560 -347 330 -166 570 -342
820 -600 498 -515 786 -1164 881 -1989 17 -146 17 -637 1 -780 -76 -640 -272
-1175 -600 -1633 -114 -159 -208 -266 -369 -423 -466 -453 -1072 -745 -1753
-845 -485 -71 -1000 -48 -1378 60 -290 84 -620 234 -850 388 -40 26 -76 48
-80 48 -4 0 -23 -72 -41 -160 l-34 -160 -924 0 -923 0 0 4205 0 4205 1085 0
1085 0 0 -1175z m11100 -3510 l0 -3725 -1090 0 -1090 0 0 3725 0 3725 1090 0
1090 0 0 -3725z m-17094 2691 c544 -63 966 -199 1426 -458 573 -323 1060 -858
1329 -1458 179 -401 265 -755 291 -1207 14 -235 2 -451 -35 -648 l-22 -120
-2323 -3 c-1277 -1 -2322 -4 -2322 -6 0 -18 60 -167 97 -241 267 -535 764
-805 1323 -720 121 18 214 47 315 97 148 73 313 215 392 339 l38 59 1179 0
1179 0 -6 -30 c-13 -65 -83 -234 -162 -395 -155 -313 -317 -544 -554 -787
-168 -173 -294 -282 -464 -401 -426 -300 -949 -513 -1457 -596 -245 -40 -337
-46 -685 -45 -292 0 -363 3 -503 22 -364 49 -667 132 -977 267 -731 318 -1298
850 -1640 1539 -173 348 -266 652 -322 1046 -14 100 -18 191 -17 450 0 350 10
452 70 730 188 874 725 1623 1489 2077 494 295 1012 456 1611 503 154 12 594
4 750 -14z m13754 -3301 l0 -3115 -1095 0 -1095 0 0 3115 0 3115 1095 0 1095
0 0 -3115z"/>
<path d="M12936 15819 c-165 -19 -302 -61 -460 -142 -498 -254 -782 -835 -727
-1487 36 -419 175 -738 430 -983 250 -240 549 -357 911 -357 226 0 417 44 605
137 363 182 625 542 715 983 76 375 32 794 -119 1115 -119 254 -342 485 -586
608 -217 108 -509 157 -769 126z"/>
<path d="M5274 15870 c-369 -38 -699 -242 -906 -560 l-50 -75 547 -3 c301 -1
789 -1 1086 0 l539 3 -54 81 c-145 217 -384 406 -616 489 -160 57 -375 83
-546 65z"/>
</g>
</svg>
