<svg xmlns="http://www.w3.org/2000/svg" width="74" height="27" viewBox="0 0 74 27">
    <g fill="#FFF" fill-rule="evenodd">
        <path fill-rule="nonzero" d="M.168 17.655c0-1.203.239-2.395.702-3.506a8.636 8.636 0 0 1 1.943-2.89 9.36 9.36 0 0 1 3.02-1.96 10.172 10.172 0 0 1 3.903-.726 10.41 10.41 0 0 1 3.935.702 9.312 9.312 0 0 1 3.044 1.956 8.787 8.787 0 0 1 1.957 2.9 9.003 9.003 0 0 1 .701 3.507 5.9 5.9 0 0 1-.084.946c-.038.228-.08.453-.123.67H6.386a3.99 3.99 0 0 0 1.298 1.981 3.223 3.223 0 0 0 2.066.726c.569.02 1.132-.12 1.624-.407a2.78 2.78 0 0 0 .989-.978h6.48a8.064 8.064 0 0 1-1.1 2.227 8.62 8.62 0 0 1-1.912 1.974 9.715 9.715 0 0 1-2.686 1.402 10.316 10.316 0 0 1-3.427.54 10.077 10.077 0 0 1-3.893-.729 9.357 9.357 0 0 1-3.012-1.956c-.837-.82-1.5-1.8-1.95-2.883a8.937 8.937 0 0 1-.695-3.496zm9.582-4.208a3.315 3.315 0 0 0-1.754.474 3.535 3.535 0 0 0-1.255 1.304h6.007a3.7 3.7 0 0 0-1.276-1.304 3.27 3.27 0 0 0-1.722-.477v.003zM40.633 17.655a9.817 9.817 0 0 1-.627 3.507 8.367 8.367 0 0 1-4.686 4.853 9.667 9.667 0 0 1-3.826.719 7.717 7.717 0 0 1-2.676-.439 9.07 9.07 0 0 1-2.076-1.052l-.193.915H21.47V3.156h5.962v6.466a8.124 8.124 0 0 1 4.163-1.08 9.558 9.558 0 0 1 3.826.733 8.202 8.202 0 0 1 4.601 4.863c.41 1.127.616 2.318.61 3.517zm-6.004 0a4.8 4.8 0 0 0-.287-1.69 3.748 3.748 0 0 0-.782-1.28 3.507 3.507 0 0 0-1.175-.806 3.69 3.69 0 0 0-1.463-.288 3.736 3.736 0 0 0-1.47.288c-.45.184-.856.461-1.192.813-.347.372-.619.808-.8 1.284a4.558 4.558 0 0 0-.294 1.68c-.007.583.09 1.164.288 1.714.17.483.44.925.792 1.297.334.351.736.63 1.182.817a3.88 3.88 0 0 0 2.915 0c.451-.188.858-.47 1.192-.827.349-.376.62-.817.8-1.298a4.67 4.67 0 0 0 .294-1.721v.017z"/>
        <path d="M42.759 9.134h6.022v17.024h-6.022zM51.979 26.158V5.796h5.962v20.362zM60.827 26.158V3.156h5.962v23.002zM70.72 3.594h-.483v-.438h1.525v.435h-.484v1.216h-.557zM73.38 4.81v-.75l-.351.604h-.246l-.35-.579v.726h-.537V3.156h.456l.536.88.526-.88h.456v1.651z"/>
        <ellipse cx="45.768" cy="3.159" rx="3.013" ry="3.012"/>
    </g>
</svg>
