<?xml version="1.0" encoding="UTF-8"?>
<svg width="1024px" height="1024px" viewBox="0 0 1024 1024" version="1.1" xmlns="http://www.w3.org/2000/svg" xmlns:xlink="http://www.w3.org/1999/xlink">
    <!-- Generator: Sketch 51.3 (57544) - http://www.bohemiancoding.com/sketch -->
    <title>ebill-curved</title>
    <desc>Created with Sketch.</desc>
    <defs>
        <rect id="path-1" x="0" y="0" width="1024" height="1024" rx="180"></rect>
        <polygon id="path-3" points="0 0 1024 0 1024 1024 0 1024"></polygon>
        <path d="M0,111.544958 L0,110.422873 C0.0679248945,95.5047708 2.8392259,81.3996101 8.30979,68.0993 C13.85334,54.6362 21.69677,42.8961 31.8571,32.8789 C42.0132,22.8617 54.2183,14.9053 68.4641,8.9967 C82.7098,3.0967 98.4732,0.1424 115.7542,0.1424 C133.1671,0.1424 149.0623,3.0625 163.444,8.8984 C177.8173,14.7385 190.1202,22.6993 200.3443,32.7763 C210.5642,42.8619 218.4799,54.6362 224.0914,68.0993 C229.6945,81.5667 232.5003,95.8593 232.5003,110.9855 C232.5003,115.7611 232.2665,119.5405 231.8073,122.3238 C231.344,125.1113 230.8466,127.8304 230.3237,130.4854 L75.3892,130.4854 C78.5564,140.7035 83.7981,148.7626 91.1186,154.6669 C98.4392,160.5669 106.78,163.5211 116.1496,163.5211 C123.9335,163.5211 130.4973,161.8623 135.8368,158.5446 C141.1806,155.2269 145.1682,151.2509 147.8082,146.6035 L226.3658,146.6035 C223.594,155.7571 219.1431,164.8123 213.0086,173.7649 C206.8741,182.7218 199.1582,190.7509 189.8566,197.8438 C180.5593,204.9409 169.706,210.6827 157.3096,215.0606 C144.9089,219.4386 131.0543,221.6276 115.7542,221.6276 C98.4732,221.6276 82.7395,218.669 68.5618,212.769 C54.3799,206.869 42.2087,198.9083 32.05266,188.8869 C21.89658,178.8782 14.01488,167.168 8.40757,153.769 C2.8694589,140.535454 0.0682940018,126.459296 -1.05870868e-12,111.544958 Z M116.1496,59.6427 C108.3657,59.6427 101.3087,61.5666 94.9787,65.4144 C88.6444,69.2622 83.5643,74.568 79.7424,81.3359 L152.5567,81.3359 C148.6031,74.568 143.455,69.2622 137.1249,65.4144 C130.7907,61.5666 123.7975,59.6427 116.1496,59.6427 Z" id="path-5"></path>
        <path d="M72.6436,0.2758 L72.6436,79.075 C79.2371,75.2314 86.6937,72.0805 95.0048,69.6264 C103.3159,67.1724 112.677,65.9454 123.1009,65.9454 C140.3819,65.9454 155.8137,68.8996 169.4048,74.7996 C182.9916,80.7039 194.4655,88.6988 203.8351,98.7759 C213.2005,108.8614 220.3212,120.6358 225.2058,134.0989 C230.0819,147.5663 232.5264,161.8588 232.5264,176.9851 C232.5264,192.107 229.9842,206.4038 224.9082,219.8669 C219.8281,233.3343 212.5033,245.1087 202.9424,255.19 C193.3772,265.2713 181.7715,273.2363 168.1167,279.0679 C154.632271,284.832759 139.372371,287.756473 122.345289,287.8268 L121.155703,287.8268 C109.373475,287.771943 98.7448415,285.980978 89.2657,282.454 C79.6368,278.8712 71.2577,274.5617 64.1369,269.5167 L61.7605,280.6626 L0.2246,280.6626 L0.2246,0.2758 L72.6436,0.2758 Z M159.7078,176.7841 C159.7078,169.221 158.5515,162.3591 156.2474,156.1897 C153.9347,150.0161 150.7676,144.813 146.746,140.5675 C142.7201,136.3221 137.9715,133.0429 132.5002,130.7171 C127.0247,128.3998 121.1241,127.2369 114.7941,127.2369 C108.4598,127.2369 102.5209,128.3998 96.9816,130.7171 C91.4423,133.0429 86.6257,136.3563 82.5403,140.6659 C78.4464,144.9797 75.2155,150.1871 72.8434,156.288 C70.4669,162.3933 69.2809,169.221 69.2809,176.7841 C69.2809,184.4798 70.4329,191.4443 72.7413,197.6821 C75.0497,203.9156 78.2509,209.1914 82.3405,213.5009 C86.4259,217.8148 91.2127,221.1282 96.684,223.4497 C102.1595,225.7712 108.0644,226.9298 114.3944,226.9298 C120.5927,226.9298 126.4678,225.7712 132.0071,223.4497 C137.5464,221.1282 142.3587,217.7763 146.4484,213.3983 C150.538,209.0204 153.7732,203.7488 156.1453,197.5795 C158.5217,191.4101 159.7078,184.4798 159.7078,176.7841 Z" id="path-7"></path>
        <polygon id="path-9" points="0.2469 0.1096 73.261 0.1096 73.261 207.6613 0.2469 207.6613"></polygon>
        <polygon id="path-11" points="0.0445 0.4039 72.4635 0.4039 72.4635 248.6613 0.0445 248.6613"></polygon>
        <polygon id="path-13" points="0.2934 0.2745 72.7124 0.2745 72.7124 280.6613 0.2934 280.6613"></polygon>
        <polygon id="path-15" points="13.8188889 12.3026667 0.800888889 12.3026667 0.800888889 0.616666667 41.8295556 0.616666667 41.8295556 12.3026667 28.802 12.3026667 28.802 45.3275556 13.8188889 45.3275556"></polygon>
        <polygon id="path-17" points="40.9522222 45.3226667 40.8197778 24.9435556 31.1744444 41.3037778 24.5708889 41.3037778 14.916 25.6464444 14.916 45.3226667 1.25555556 45.3226667 1.25555556 0.612 13.584 0.612 28.0568889 24.44 42.1613333 0.612 54.4804444 0.612 54.6126667 45.3226667"></polygon>
    </defs>
    <g id="Page-1" stroke="none" stroke-width="1" fill="none" fill-rule="evenodd">
        <g id="ebill-curved">
            <g id="Group-3">
                <mask id="mask-2" fill="white">
                    <use xlink:href="#path-1"></use>
                </mask>
                <use id="Mask" fill="#FFFFFF" fill-rule="nonzero" xlink:href="#path-1"></use>
                <g mask="url(#mask-2)" id="Fill-1-Clipped">
                    <g>
                        <mask id="mask-4" fill="white">
                            <use xlink:href="#path-3"></use>
                        </mask>
                        <g id="path-1"></g>
                        <polygon id="Fill-1" fill="#00234C" fill-rule="nonzero" mask="url(#mask-4)" points="-5 -5 1029 -5 1029 1029 -5 1029"></polygon>
                    </g>
                </g>
            </g>
            <g id="Group-6" transform="translate(64.000000, 435.000000)">
                <g id="Fill-4-Clipped">
                    <mask id="mask-6" fill="white">
                        <use xlink:href="#path-5"></use>
                    </mask>
                    <g id="path-3"></g>
                    <polygon id="Fill-4" fill="#FFFFFF" fill-rule="nonzero" mask="url(#mask-6)" points="-5.00128 -4.8576 237.5003 -4.8576 237.5003 226.6276 -5.00128 226.6276"></polygon>
                </g>
            </g>
            <g id="Group-9" transform="translate(322.000000, 369.000000)">
                <g id="Fill-7-Clipped">
                    <mask id="mask-8" fill="white">
                        <use xlink:href="#path-7"></use>
                    </mask>
                    <g id="path-5"></g>
                    <polygon id="Fill-7" fill="#FFFFFF" fill-rule="nonzero" mask="url(#mask-8)" points="-4.7754 -4.7242 237.5264 -4.7242 237.5264 292.8281 -4.7754 292.8281"></polygon>
                </g>
            </g>
            <g id="Group-12" transform="translate(580.000000, 442.000000)">
                <g id="Fill-10-Clipped">
                    <mask id="mask-10" fill="white">
                        <use xlink:href="#path-9"></use>
                    </mask>
                    <g id="path-7"></g>
                    <polygon id="Fill-10" fill="#0059FF" fill-rule="nonzero" mask="url(#mask-10)" points="-4.7531 -4.8904 78.261 -4.8904 78.261 212.6613 -4.7531 212.6613"></polygon>
                </g>
            </g>
            <g id="Group-15" transform="translate(692.000000, 401.000000)">
                <g id="Fill-13-Clipped">
                    <mask id="mask-12" fill="white">
                        <use xlink:href="#path-11"></use>
                    </mask>
                    <g id="path-9"></g>
                    <polygon id="Fill-13" fill="#08B1FA" fill-rule="nonzero" mask="url(#mask-12)" points="-4.9555 -4.5961 77.4635 -4.5961 77.4635 253.6613 -4.9555 253.6613"></polygon>
                </g>
            </g>
            <g id="Group-18" transform="translate(799.000000, 369.000000)">
                <g id="Fill-16-Clipped">
                    <mask id="mask-14" fill="white">
                        <use xlink:href="#path-13"></use>
                    </mask>
                    <g id="path-11"></g>
                    <polygon id="Fill-16" fill="#87EAFA" fill-rule="nonzero" mask="url(#mask-14)" points="-4.7066 -4.7255 77.7124 -4.7255 77.7124 285.6613 -4.7066 285.6613"></polygon>
                </g>
            </g>
            <g id="Group" transform="translate(893.000000, 369.000000)">
                <g id="Group-21">
                    <g id="Fill-19-Clipped">
                        <mask id="mask-16" fill="white">
                            <use xlink:href="#path-15"></use>
                        </mask>
                        <g id="path-13"></g>
                        <polygon id="Fill-19" fill="#FFFFFF" fill-rule="nonzero" mask="url(#mask-16)" points="-10.3102222 -10.4944444 52.9406667 -10.4944444 52.9406667 56.4386667 -10.3102222 56.4386667"></polygon>
                    </g>
                </g>
                <g id="Group-24" transform="translate(44.444444, 0.000000)">
                    <g id="Fill-22-Clipped">
                        <mask id="mask-18" fill="white">
                            <use xlink:href="#path-17"></use>
                        </mask>
                        <g id="path-15"></g>
                        <polygon id="Fill-22" fill="#FFFFFF" fill-rule="nonzero" mask="url(#mask-18)" points="-9.85555556 -10.4991111 65.7237778 -10.4991111 65.7237778 56.4337778 -9.85555556 56.4337778"></polygon>
                    </g>
                </g>
            </g>
        </g>
    </g>
</svg>