<svg xmlns="http://www.w3.org/2000/svg" xmlns:xlink="http://www.w3.org/1999/xlink" width="76" height="25" viewBox="0 0 76 25">
    <defs>
        <path id="a" d="M0 .054h19.699v18.77H0z"/>
        <path id="c" d="M.267.269H19.95v24.369H.267z"/>
    </defs>
    <g fill="none" fill-rule="evenodd">
        <path fill-rule="nonzero" d="M-4-1h84v27H-4z"/>
        <g transform="translate(0 5.89)">
            <mask id="b" fill="#fff">
                <use xlink:href="#a"/>
            </mask>
            <path fill="#FFF" d="M9.841 5.096c-.66 0-1.257.163-1.794.49a3.638 3.638 0 0 0-1.29 1.349h6.169a3.773 3.773 0 0 0-1.308-1.35 3.357 3.357 0 0 0-1.777-.489M0 9.447c0-1.282.235-2.493.704-3.634A8.905 8.905 0 0 1 2.7 2.828c.86-.849 1.895-1.523 3.102-2.024 1.207-.5 2.542-.75 4.006-.75 1.476 0 2.823.247 4.041.742 1.218.495 2.26 1.17 3.127 2.023a9.055 9.055 0 0 1 2.012 2.994 9.368 9.368 0 0 1 .712 3.634c0 .405-.02.725-.059.961-.039.236-.081.467-.125.692H6.387c.269.866.713 1.549 1.333 2.05.62.5 1.327.75 2.121.75.66 0 1.216-.141 1.668-.422.453-.281.79-.618 1.014-1.012h6.656a8.373 8.373 0 0 1-1.131 2.302 8.87 8.87 0 0 1-1.962 2.04c-.788.602-1.707 1.088-2.758 1.46-1.05.37-2.224.556-3.52.556-1.465 0-2.798-.251-3.999-.751-1.202-.5-2.233-1.175-3.093-2.024a9.025 9.025 0 0 1-2.004-2.976A9.298 9.298 0 0 1 0 9.447" mask="url(#b)"/>
        </g>
        <g transform="translate(21.611 .093)">
            <mask id="d" fill="#fff">
                <use xlink:href="#c"/>
            </mask>
            <path fill="#FFF" d="M13.78 15.227c0-.64-.098-1.222-.293-1.745a3.872 3.872 0 0 0-.806-1.324 3.567 3.567 0 0 0-1.207-.835 3.808 3.808 0 0 0-1.5-.295 3.87 3.87 0 0 0-1.509.295c-.47.197-.877.478-1.223.843-.347.366-.621.807-.822 1.324a4.754 4.754 0 0 0-.302 1.737c0 .652.098 1.243.293 1.771.196.529.467.976.814 1.34.346.366.751.647 1.215.844.464.197.964.295 1.5.295.526 0 1.023-.098 1.493-.295.469-.197.877-.48 1.223-.852.347-.37.62-.818.822-1.34.201-.523.302-1.11.302-1.763m6.17.017c0 1.282-.216 2.493-.646 3.634a8.827 8.827 0 0 1-1.861 2.994c-.81.854-1.794 1.53-2.95 2.023-1.157.495-2.468.743-3.932.743-1.017 0-1.934-.152-2.75-.456-.815-.303-1.525-.668-2.129-1.096l-.201.945H.267V.269h6.136v6.678a8.563 8.563 0 0 1 1.895-.8c.704-.209 1.497-.313 2.38-.313 1.464 0 2.772.25 3.923.75 1.151.5 2.124 1.178 2.917 2.032a8.714 8.714 0 0 1 1.811 2.994c.413 1.141.62 2.352.62 3.634" mask="url(#d)"/>
        </g>
        <path fill="#0059FF" d="M43.74 24.124h6.186V6.534H43.74z"/>
        <path fill="#08B1FA" d="M53.212 24.124h6.136V3.085h-6.136z"/>
        <path fill="#87EAFA" d="M62.3 24.124h6.135V.362h-6.136z"/>
        <path fill="#FFF" d="M72.46.808h-.496V.362h1.564v.446h-.497v1.26h-.571zM75.189 2.067l-.005-.777-.368.624h-.252l-.368-.597v.75h-.52V.362h.47l.551.909.538-.909h.47l.005 1.705z"/>
    </g>
</svg>
